PathFileType	4	(X/Y/Z)	C:\Git\research_data\Projects\torsion_deformities_healthy_kinematics\simulations\P01\pre\dynamic07_l\marker_experimental.trc
DataRate	CameraRate	NumFrames	NumMarkers	Units	OrigDataRate	OrigDataStartFrame	OrigNumFrames
200	200	5	34	mm	200	101	802
Frame#	Time	C7			T10			CLAV			STRN			RBAK			LASI			RASI			SACR			LT1			LT2			LT3			LS1			LS2			LS3			LHEE			LTOE			RT1			RT2			RT3			RS1			RS2			RS3			RHEE			RTOE			LKNE			LANK			RKNE			RANK			LAJC			LKJC			RAJC			RKJC			RHJC			LHJC		
		X1	Y1	Z1	X2	Y2	Z2	X3	Y3	Z3	X4	Y4	Z4	X5	Y5	Z5	X6	Y6	Z6	X7	Y7	Z7	X8	Y8	Z8	X9	Y9	Z9	X10	Y10	Z10	X11	Y11	Z11	X12	Y12	Z12	X13	Y13	Z13	X14	Y14	Z14	X15	Y15	Z15	X16	Y16	Z16	X17	Y17	Z17	X18	Y18	Z18	X19	Y19	Z19	X20	Y20	Z20	X21	Y21	Z21	X22	Y22	Z22	X23	Y23	Z23	X24	Y24	Z24	X25	Y25	Z25	X26	Y26	Z26	X27	Y27	Z27	X28	Y28	Z28	X29	Y29	Z29	X30	Y30	Z30	X31	Y31	Z31	X32	Y32	Z32	X33	Y33	Z33	X34	Y34	Z34	

101	0.500000	-2052.162598	1005.130249	401.031219	-2076.729736	831.675720	389.363861	-1933.546265	969.964355	394.635498	-1883.153687	840.560181	389.379517	-2067.201172	939.132812	494.349884	-1941.068481	671.664673	282.779327	-1951.118408	659.133789	492.236145	-2097.890869	718.727661	383.360046	-1929.969971	502.027771	247.935684	-1962.853638	408.412323	248.855377	-1826.070435	438.719818	291.098419	-1874.493286	257.817200	268.209930	-1951.088989	166.171661	240.439911	-1818.157837	181.934082	292.304291	-1915.209106	39.185608	307.424866	-1772.190308	46.053185	333.330200	-2037.280151	499.073364	529.228027	-2108.487549	436.940430	511.835510	-1973.370605	397.497711	534.859436	-2107.516602	270.299042	530.027466	-2228.639648	273.915009	550.358643	-2127.787598	176.589066	525.067322	-2309.940186	134.753082	493.827148	-2206.701416	40.405025	477.356903	-1897.586182	352.908997	283.095703	-1860.847656	36.359657	294.502930	-2058.367432	329.305511	512.101746	-2276.533447	102.417946	523.358948	-1863.133667	35.602108	328.313538	-1893.670288	350.214233	334.360382	-2273.659912	104.827682	486.674866	-2048.534424	322.762909	459.585602	-2019.836699	607.300006	457.342349	-2012.505277	616.441286	304.543594	
102	0.505000	-2046.091553	1005.599609	399.902649	-2070.379395	831.984863	388.844147	-1927.270508	970.581665	393.500214	-1876.657349	841.248962	388.586670	-2061.192871	939.771545	493.317871	-1934.158081	672.660278	282.165436	-1944.308838	659.466309	491.447510	-2091.432373	718.671448	383.336426	-1922.869263	502.953888	247.705566	-1955.769775	409.571106	247.804413	-1819.360229	439.562897	291.674866	-1869.164551	257.954895	267.834534	-1946.686523	167.943863	238.260040	-1814.656738	181.007568	292.837311	-1915.101562	39.792076	306.975128	-1771.757324	44.589600	333.161407	-2027.862427	498.365448	528.777893	-2097.928223	434.903198	511.964508	-1961.889526	397.850494	534.244507	-2096.992432	270.572876	529.978027	-2218.087891	277.432495	549.190369	-2119.586426	177.363434	525.297546	-2302.213379	141.054688	492.916382	-2203.084961	41.535419	477.390625	-1890.687866	353.718811	282.556610	-1859.841675	36.228863	293.750092	-2045.649414	328.168579	512.172058	-2270.154541	107.000435	522.616211	-1862.827515	35.423302	327.504974	-1887.303589	350.806091	333.847229	-2266.893799	109.145988	485.948029	-2036.001587	321.696106	459.612854	-2012.765463	607.450752	456.367910	-2005.360052	617.076315	303.687711	
103	0.510000	-2040.015869	1006.152222	398.808044	-2064.050781	832.387329	388.354309	-1921.000488	971.265503	392.422119	-1870.208740	841.983398	387.866364	-2055.192139	940.509216	492.321686	-1927.396240	673.806213	281.546143	-1937.619751	659.829956	490.744781	-2085.020264	718.699646	383.342773	-1915.871948	503.963867	247.502426	-1948.811279	410.847382	246.642792	-1812.835205	440.452942	292.371063	-1864.134766	258.072205	267.337616	-1942.448853	169.564911	235.910980	-1811.415039	180.142944	293.261017	-1915.053833	40.356262	306.509033	-1771.430054	43.516045	332.813416	-2018.406372	497.737976	528.369263	-2087.252930	432.903076	512.075439	-1950.327515	398.363983	533.700867	-2086.128906	270.943481	529.878784	-2207.129639	280.948975	547.983765	-2110.962891	178.265564	525.436646	-2293.942871	147.263824	491.902435	-2198.781982	43.082996	477.422638	-1883.959351	354.580292	281.962280	-1858.943726	36.162552	292.835175	-2032.763550	327.171295	512.245178	-2263.205811	111.654060	521.760864	-1862.646362	35.324642	326.518188	-1881.183472	351.404938	333.273834	-2259.572998	113.536453	485.113220	-2023.260620	320.773956	459.650452	-2005.817227	607.629613	455.442077	-1998.358642	617.826023	302.820737	
104	0.515000	-2033.935547	1006.783569	397.749634	-2057.744141	832.879150	387.893066	-1914.737305	972.010620	391.406128	-1863.809326	842.758789	387.221161	-2049.201416	941.339478	491.361664	-1920.779053	675.088989	280.925690	-1931.053101	660.222351	490.137543	-2078.652100	718.812195	383.373016	-1909.008179	505.018585	247.310699	-1942.041626	412.200714	245.402390	-1806.525513	441.312347	293.111511	-1859.430176	258.142670	266.732452	-1938.440796	170.991135	233.493134	-1808.437134	179.317963	293.562897	-1915.036255	40.867043	306.035187	-1771.185547	42.788040	332.329773	-2008.949219	497.210266	528.003113	-2076.509521	430.976532	512.148865	-1938.756104	399.051971	533.245178	-2074.962158	271.419495	529.722656	-2195.812500	284.428345	546.762024	-2101.927246	179.291367	525.464294	-2285.153076	153.301804	490.782104	-2193.703613	45.058247	477.453552	-1877.474609	355.447998	281.305115	-1858.165894	36.129253	291.820496	-2019.794312	326.343903	512.313110	-2255.683594	116.321892	520.793579	-1862.572510	35.281467	325.418396	-1875.349731	351.975342	332.628479	-2251.701172	117.952667	484.170227	-2010.383667	320.027771	459.691986	-1998.995738	607.833985	454.574067	-1991.500544	618.679596	301.948408	
105	0.520000	-2027.850952	1007.488770	396.729156	-2051.459717	833.455627	387.458740	-1908.482544	972.811707	390.456329	-1857.459595	843.570984	386.652618	-2043.222290	942.255249	490.437225	-1914.298950	676.491150	280.309082	-1924.607544	660.642273	489.632690	-2072.324707	719.008972	383.420471	-1902.307251	506.079071	247.115448	-1935.523682	413.591461	244.119003	-1800.458130	442.067139	293.817596	-1855.072632	258.147888	266.037567	-1934.724731	172.199097	231.108932	-1805.724487	178.514755	293.734680	-1915.027222	41.316200	305.562195	-1771.006348	42.351807	331.757233	-1999.524658	496.801147	527.679016	-2065.741943	429.158356	512.168213	-1927.239136	399.927490	532.889587	-2063.530029	272.008362	529.503967	-2184.188721	287.832397	545.546021	-2092.490723	180.434158	525.363770	-2275.871094	159.091187	489.552856	-2187.776611	47.441086	477.479950	-1871.305664	356.277863	280.579620	-1857.519897	36.104515	290.770477	-2006.817749	325.712006	512.368225	-2247.588623	120.939201	519.716553	-1862.588135	35.273701	324.275391	-1869.838013	352.485413	331.903351	-2243.284912	122.340347	483.120026	-1997.437744	319.485596	459.730927	-1992.301815	608.062939	453.772310	-1984.782050	619.624150	301.077920	
